<?xml version="1.0" encoding="UTF-8" standalone="no"?>
<!DOCTYPE svg PUBLIC "-//W3C//DTD SVG 1.1//EN" "http://www.w3.org/Graphics/SVG/1.1/DTD/svg11.dtd">
<svg width="143" height="143" viewBox="0 0 143 143" version="1.1" xmlns="http://www.w3.org/2000/svg" xmlns:xlink="http://www.w3.org/1999/xlink" xml:space="preserve" style="fill-rule:evenodd;clip-rule:evenodd;stroke-linecap:round;stroke-linejoin:round;">
    <g transform="matrix(1.00029,0,0,1,-0.0007959,0.000795947)">
        <g>
            <g id="path5254" transform="matrix(1,0,0,1,-0.889999,-909.252)">
                <circle cx="72" cy="980.362" r="65.61" style="fill:rgb(113,240,2);"/>
            </g>
            <g id="path4323-9" transform="matrix(-0.103578,0.116807,-0.109252,-0.0968793,130.476,226.07)">
                <path d="M-286,1172.36C-286,1172.36 -286,1242.36 -216,1242.36C-146,1242.36 -146,1172.36 -146,1172.36L-145.375,822.716L-165.227,842.134L-173.171,826.572L-183.083,837.727L-195.302,823.128L-214.463,850.158L-222.135,832.592L-231.512,840.615L-248.792,826.547L-260.176,841.691L-269.266,828.041L-276.773,833.016L-286,822.362" style="fill:rgb(253,253,253);"/>
            </g>
            <g id="path4323-5-7" transform="matrix(-0.103739,0.116092,-0.108542,-0.0969928,129.759,226.114)">
                <path d="M-196,822.362L-196,1172.36C-196,1172.36 -196.051,1225.69 -241.043,1239.97C-233.901,1242.24 -223.266,1243.71 -213.676,1243.71C-143.676,1243.71 -145.129,1172.15 -145.129,1172.15L-146,822.362L-165.969,841.985L-174.108,826.456L-184.264,837.007L-196,822.362Z" style="fill:rgb(221,221,221);"/>
            </g>
            <g id="path4323-91" transform="matrix(-0.130425,-0.0915007,0.0821185,-0.117051,-10.1895,196.707)">
                <path d="M-286,1172.36L-146,1172.36L-146,822.362L-157.917,835.249L-166.842,828.385L-179.23,839.595L-189.001,827.848L-197.501,838.763L-206.539,828.989L-217.626,832.649L-230.959,823.708L-243.185,841.836L-253.672,829.82L-258.809,835.98L-264.783,828.039L-276.181,838.715L-286.762,823.05" style="fill:rgb(253,253,253);"/>
            </g>
            <g id="path4323-5-71" transform="matrix(0.145866,0.103781,-0.0828267,0.116415,213.203,5.34305)">
                <path d="M-196,822.362L-196,1172.36L-185.176,1153.69L-175.77,1165.76L-171.305,1159.19L-165.912,1167.29L-155.886,1155.96L-146,1172.36L-146,822.362L-196,822.362Z" style="fill:rgb(221,221,221);"/>
            </g>
            <g id="rect4901" transform="matrix(0.13283,0.0934206,-0.0921973,0.133682,219.874,-11.6853)">
                <rect x="-286" y="820.862" width="139.938" height="11.813" style="fill:rgb(221,221,221);"/>
            </g>
            <g id="path4325-7" transform="matrix(0.13283,0.0934206,-0.0921973,0.133682,219.874,-11.6853)">
                <path d="M-291,822.362C-291,822.362 -310,822.362 -310,807.665C-310,792.969 -291,792.969 -291,792.969L-139,792.969C-139,792.969 -120,792.969 -120,807.666C-120,822.362 -139,822.362 -139,822.362L-291,822.362Z" style="fill:rgb(253,253,253);"/>
            </g>
            <g id="circle5393" transform="matrix(1,0,0,1,-0.889999,-909.252)">
                <circle cx="72" cy="980.362" r="65.61" style="fill:none;stroke:rgb(254,254,254);stroke-width:11px;"/>
            </g>
            <g transform="matrix(0.99971,0,0,1,0.000795669,-0.000795947)">
                <path d="M72.253,129.757C72.609,129.753 72.965,129.73 73.319,129.688C74.267,129.575 76.156,129.351 76.156,129.351C76.156,129.351 76.65,129.301 77.151,129.25C77.839,129.179 78.533,129.185 79.22,129.266C80.395,129.405 82.272,129.627 83.225,129.74C83.274,129.745 83.311,129.786 83.313,129.834C83.316,129.883 83.282,129.927 83.234,129.937C83.136,129.958 83.034,129.98 82.934,130.002C82.516,130.092 82.135,130.306 81.84,130.617C81.84,130.617 81.84,130.617 81.84,130.617C81.626,130.842 81.473,131.118 81.394,131.418C81.347,131.599 81.294,131.801 81.252,131.961C81.202,132.154 81.176,132.353 81.176,132.553C81.176,132.989 81.176,133.747 81.176,133.747C81.176,133.747 81.167,134.114 81.159,134.468C81.149,134.888 81.255,135.303 81.466,135.667C81.484,135.698 81.501,135.727 81.516,135.754C81.575,135.856 81.616,135.968 81.636,136.085C81.645,136.138 81.655,136.2 81.666,136.265C81.734,136.665 81.599,137.073 81.306,137.353C81.283,137.375 81.26,137.397 81.237,137.419C81.012,137.634 80.676,137.684 80.399,137.543C80.399,137.543 80.399,137.543 80.398,137.542C80.099,137.39 79.918,137.075 79.938,136.739C79.951,136.534 79.963,136.327 79.97,136.222C79.972,136.175 79.978,136.128 79.986,136.082C80.008,135.955 80.057,135.678 80.094,135.473C80.123,135.307 80.138,135.138 80.138,134.969C80.138,134.883 80.138,134.784 80.138,134.686C80.138,134.354 80.084,134.025 79.978,133.711C79.938,133.594 79.899,133.48 79.873,133.401C79.849,133.333 79.822,133.266 79.791,133.2C79.667,132.945 79.345,132.276 79.345,132.276C79.345,132.276 79.189,131.995 79.024,131.698C78.787,131.271 78.353,130.988 77.867,130.943C77.358,130.897 76.788,130.844 76.788,130.844L74.498,131.012C74.498,131.012 73.239,131.125 72.672,131.177C72.491,131.193 72.309,131.202 72.127,131.205C71.634,131.211 70.642,131.225 70.642,131.225C70.642,131.225 70.616,131.229 70.571,131.236C69.947,131.336 69.436,131.785 69.258,132.391C69.258,132.392 69.258,132.392 69.258,132.392C69.258,132.392 69.258,132.787 69.258,133.088C69.258,133.309 69.292,133.529 69.358,133.741C69.447,134.024 69.564,134.394 69.564,134.394C69.564,134.394 69.719,135.039 69.798,135.366C69.828,135.488 69.839,135.614 69.831,135.739C69.83,135.762 69.828,135.787 69.827,135.813C69.797,136.303 69.462,136.72 68.99,136.854C68.99,136.854 68.989,136.854 68.989,136.854C68.742,136.924 68.478,136.895 68.253,136.773C68.207,136.748 68.159,136.722 68.11,136.695C67.715,136.481 67.469,136.068 67.469,135.619C67.469,135.596 67.469,135.572 67.469,135.55C67.469,135.324 67.515,135.1 67.603,134.891C67.647,134.788 67.694,134.675 67.734,134.58C67.798,134.43 67.838,134.27 67.852,134.107C67.858,134.035 67.865,133.952 67.873,133.865C67.913,133.403 67.83,132.938 67.631,132.518C67.611,132.476 67.591,132.435 67.572,132.394C67.428,132.089 67.198,131.833 66.91,131.656C66.723,131.54 66.507,131.408 66.335,131.302C66.124,131.172 65.889,131.084 65.644,131.043C65.085,130.95 64.088,130.785 64.088,130.785C64.088,130.785 63.915,130.739 63.736,130.691C63.496,130.627 63.319,130.425 63.287,130.179C63.282,130.141 63.277,130.103 63.273,130.068C63.255,129.933 63.335,129.805 63.463,129.761C63.464,129.761 63.464,129.761 63.464,129.761C64.11,129.541 64.797,129.468 65.474,129.548C65.63,129.567 65.784,129.585 65.92,129.601C66.232,129.638 66.546,129.649 66.859,129.635C67.15,129.621 67.525,129.604 67.831,129.59C68.209,129.572 68.586,129.578 68.963,129.606C69.548,129.649 70.439,129.716 70.887,129.749C71.071,129.763 71.257,129.769 71.442,129.767C71.664,129.764 71.982,129.76 72.253,129.757Z" style="fill:rgb(189,0,0);stroke:rgb(173,0,0);stroke-width:0.15px;stroke-miterlimit:1.5;"/>
            </g>
            <g transform="matrix(0.99971,0,0,1,0.000795669,-0.000795947)">
                <path d="M69.353,133.776L69.568,134.47L69.734,135.2L69.81,135.608L69.781,136.038L69.655,136.34L69.488,136.564L69.221,136.737L68.954,136.866L68.75,136.888L68.528,136.871C68.528,136.871 68.8,136.535 68.891,136.422C68.911,136.397 68.931,136.372 68.949,136.346C68.949,136.346 68.949,136.346 68.949,136.346C69.172,136.039 69.31,135.679 69.35,135.301C69.36,135.211 69.366,135.147 69.366,135.147L69.341,134.498L69.353,133.776Z" style="fill:rgb(135,43,43);stroke:rgb(145,41,41);stroke-width:0.15px;stroke-miterlimit:1.5;"/>
            </g>
            <g transform="matrix(0.99971,0,0,1,11.8824,0.76854)">
                <path d="M69.267,134.048L69.395,134.538L69.701,135.183L69.792,135.599L69.739,136.033L69.619,136.343L69.444,136.551L69.221,136.737L69.007,136.842L68.75,136.856L68.522,136.758C68.522,136.758 68.717,136.576 68.834,136.466C68.892,136.412 68.945,136.352 68.991,136.288C68.991,136.288 68.991,136.288 68.991,136.288C69.186,136.019 69.307,135.703 69.342,135.373C69.356,135.247 69.366,135.147 69.366,135.147L69.361,134.675L69.267,134.048Z" style="fill:rgb(135,43,43);stroke:rgb(145,41,41);stroke-width:0.15px;stroke-miterlimit:1.5;"/>
            </g>
        </g>
    </g>
</svg>
